%TF.GenerationSoftware,KiCad,Pcbnew,9.0.3*%
%TF.CreationDate,2025-08-18T22:42:58+09:00*%
%TF.ProjectId,espCon_main,65737043-6f6e-45f6-9d61-696e2e6b6963,rev?*%
%TF.SameCoordinates,Original*%
%TF.FileFunction,Legend,Bot*%
%TF.FilePolarity,Positive*%
%FSLAX46Y46*%
G04 Gerber Fmt 4.6, Leading zero omitted, Abs format (unit mm)*
G04 Created by KiCad (PCBNEW 9.0.3) date 2025-08-18 22:42:58*
%MOMM*%
%LPD*%
G01*
G04 APERTURE LIST*
%ADD10C,0.100000*%
G04 APERTURE END LIST*
D10*
X123950634Y-76500000D02*
X144950634Y-76500000D01*
X144950634Y-152500000D01*
X123950634Y-152500000D01*
X123950634Y-76500000D01*
X144950634Y-76500000D02*
X165950634Y-76500000D01*
X165950634Y-152500000D01*
X144950634Y-152500000D01*
X144950634Y-76500000D01*
X144122940Y-152372419D02*
X144694368Y-152372419D01*
X144408654Y-152372419D02*
X144408654Y-151372419D01*
X144408654Y-151372419D02*
X144503892Y-151515276D01*
X144503892Y-151515276D02*
X144599130Y-151610514D01*
X144599130Y-151610514D02*
X144694368Y-151658133D01*
X143551511Y-151800990D02*
X143646749Y-151753371D01*
X143646749Y-151753371D02*
X143694368Y-151705752D01*
X143694368Y-151705752D02*
X143741987Y-151610514D01*
X143741987Y-151610514D02*
X143741987Y-151562895D01*
X143741987Y-151562895D02*
X143694368Y-151467657D01*
X143694368Y-151467657D02*
X143646749Y-151420038D01*
X143646749Y-151420038D02*
X143551511Y-151372419D01*
X143551511Y-151372419D02*
X143361035Y-151372419D01*
X143361035Y-151372419D02*
X143265797Y-151420038D01*
X143265797Y-151420038D02*
X143218178Y-151467657D01*
X143218178Y-151467657D02*
X143170559Y-151562895D01*
X143170559Y-151562895D02*
X143170559Y-151610514D01*
X143170559Y-151610514D02*
X143218178Y-151705752D01*
X143218178Y-151705752D02*
X143265797Y-151753371D01*
X143265797Y-151753371D02*
X143361035Y-151800990D01*
X143361035Y-151800990D02*
X143551511Y-151800990D01*
X143551511Y-151800990D02*
X143646749Y-151848609D01*
X143646749Y-151848609D02*
X143694368Y-151896228D01*
X143694368Y-151896228D02*
X143741987Y-151991466D01*
X143741987Y-151991466D02*
X143741987Y-152181942D01*
X143741987Y-152181942D02*
X143694368Y-152277180D01*
X143694368Y-152277180D02*
X143646749Y-152324800D01*
X143646749Y-152324800D02*
X143551511Y-152372419D01*
X143551511Y-152372419D02*
X143361035Y-152372419D01*
X143361035Y-152372419D02*
X143265797Y-152324800D01*
X143265797Y-152324800D02*
X143218178Y-152277180D01*
X143218178Y-152277180D02*
X143170559Y-152181942D01*
X143170559Y-152181942D02*
X143170559Y-151991466D01*
X143170559Y-151991466D02*
X143218178Y-151896228D01*
X143218178Y-151896228D02*
X143265797Y-151848609D01*
X143265797Y-151848609D02*
X143361035Y-151800990D01*
X142313416Y-151372419D02*
X142503892Y-151372419D01*
X142503892Y-151372419D02*
X142599130Y-151420038D01*
X142599130Y-151420038D02*
X142646749Y-151467657D01*
X142646749Y-151467657D02*
X142741987Y-151610514D01*
X142741987Y-151610514D02*
X142789606Y-151800990D01*
X142789606Y-151800990D02*
X142789606Y-152181942D01*
X142789606Y-152181942D02*
X142741987Y-152277180D01*
X142741987Y-152277180D02*
X142694368Y-152324800D01*
X142694368Y-152324800D02*
X142599130Y-152372419D01*
X142599130Y-152372419D02*
X142408654Y-152372419D01*
X142408654Y-152372419D02*
X142313416Y-152324800D01*
X142313416Y-152324800D02*
X142265797Y-152277180D01*
X142265797Y-152277180D02*
X142218178Y-152181942D01*
X142218178Y-152181942D02*
X142218178Y-151943847D01*
X142218178Y-151943847D02*
X142265797Y-151848609D01*
X142265797Y-151848609D02*
X142313416Y-151800990D01*
X142313416Y-151800990D02*
X142408654Y-151753371D01*
X142408654Y-151753371D02*
X142599130Y-151753371D01*
X142599130Y-151753371D02*
X142694368Y-151800990D01*
X142694368Y-151800990D02*
X142741987Y-151848609D01*
X142741987Y-151848609D02*
X142789606Y-151943847D01*
X141313416Y-151372419D02*
X141789606Y-151372419D01*
X141789606Y-151372419D02*
X141837225Y-151848609D01*
X141837225Y-151848609D02*
X141789606Y-151800990D01*
X141789606Y-151800990D02*
X141694368Y-151753371D01*
X141694368Y-151753371D02*
X141456273Y-151753371D01*
X141456273Y-151753371D02*
X141361035Y-151800990D01*
X141361035Y-151800990D02*
X141313416Y-151848609D01*
X141313416Y-151848609D02*
X141265797Y-151943847D01*
X141265797Y-151943847D02*
X141265797Y-152181942D01*
X141265797Y-152181942D02*
X141313416Y-152277180D01*
X141313416Y-152277180D02*
X141361035Y-152324800D01*
X141361035Y-152324800D02*
X141456273Y-152372419D01*
X141456273Y-152372419D02*
X141694368Y-152372419D01*
X141694368Y-152372419D02*
X141789606Y-152324800D01*
X141789606Y-152324800D02*
X141837225Y-152277180D01*
X140646749Y-151372419D02*
X140551511Y-151372419D01*
X140551511Y-151372419D02*
X140456273Y-151420038D01*
X140456273Y-151420038D02*
X140408654Y-151467657D01*
X140408654Y-151467657D02*
X140361035Y-151562895D01*
X140361035Y-151562895D02*
X140313416Y-151753371D01*
X140313416Y-151753371D02*
X140313416Y-151991466D01*
X140313416Y-151991466D02*
X140361035Y-152181942D01*
X140361035Y-152181942D02*
X140408654Y-152277180D01*
X140408654Y-152277180D02*
X140456273Y-152324800D01*
X140456273Y-152324800D02*
X140551511Y-152372419D01*
X140551511Y-152372419D02*
X140646749Y-152372419D01*
X140646749Y-152372419D02*
X140741987Y-152324800D01*
X140741987Y-152324800D02*
X140789606Y-152277180D01*
X140789606Y-152277180D02*
X140837225Y-152181942D01*
X140837225Y-152181942D02*
X140884844Y-151991466D01*
X140884844Y-151991466D02*
X140884844Y-151753371D01*
X140884844Y-151753371D02*
X140837225Y-151562895D01*
X140837225Y-151562895D02*
X140789606Y-151467657D01*
X140789606Y-151467657D02*
X140741987Y-151420038D01*
X140741987Y-151420038D02*
X140646749Y-151372419D01*
X165122940Y-152372419D02*
X165694368Y-152372419D01*
X165408654Y-152372419D02*
X165408654Y-151372419D01*
X165408654Y-151372419D02*
X165503892Y-151515276D01*
X165503892Y-151515276D02*
X165599130Y-151610514D01*
X165599130Y-151610514D02*
X165694368Y-151658133D01*
X164551511Y-151800990D02*
X164646749Y-151753371D01*
X164646749Y-151753371D02*
X164694368Y-151705752D01*
X164694368Y-151705752D02*
X164741987Y-151610514D01*
X164741987Y-151610514D02*
X164741987Y-151562895D01*
X164741987Y-151562895D02*
X164694368Y-151467657D01*
X164694368Y-151467657D02*
X164646749Y-151420038D01*
X164646749Y-151420038D02*
X164551511Y-151372419D01*
X164551511Y-151372419D02*
X164361035Y-151372419D01*
X164361035Y-151372419D02*
X164265797Y-151420038D01*
X164265797Y-151420038D02*
X164218178Y-151467657D01*
X164218178Y-151467657D02*
X164170559Y-151562895D01*
X164170559Y-151562895D02*
X164170559Y-151610514D01*
X164170559Y-151610514D02*
X164218178Y-151705752D01*
X164218178Y-151705752D02*
X164265797Y-151753371D01*
X164265797Y-151753371D02*
X164361035Y-151800990D01*
X164361035Y-151800990D02*
X164551511Y-151800990D01*
X164551511Y-151800990D02*
X164646749Y-151848609D01*
X164646749Y-151848609D02*
X164694368Y-151896228D01*
X164694368Y-151896228D02*
X164741987Y-151991466D01*
X164741987Y-151991466D02*
X164741987Y-152181942D01*
X164741987Y-152181942D02*
X164694368Y-152277180D01*
X164694368Y-152277180D02*
X164646749Y-152324800D01*
X164646749Y-152324800D02*
X164551511Y-152372419D01*
X164551511Y-152372419D02*
X164361035Y-152372419D01*
X164361035Y-152372419D02*
X164265797Y-152324800D01*
X164265797Y-152324800D02*
X164218178Y-152277180D01*
X164218178Y-152277180D02*
X164170559Y-152181942D01*
X164170559Y-152181942D02*
X164170559Y-151991466D01*
X164170559Y-151991466D02*
X164218178Y-151896228D01*
X164218178Y-151896228D02*
X164265797Y-151848609D01*
X164265797Y-151848609D02*
X164361035Y-151800990D01*
X163313416Y-151372419D02*
X163503892Y-151372419D01*
X163503892Y-151372419D02*
X163599130Y-151420038D01*
X163599130Y-151420038D02*
X163646749Y-151467657D01*
X163646749Y-151467657D02*
X163741987Y-151610514D01*
X163741987Y-151610514D02*
X163789606Y-151800990D01*
X163789606Y-151800990D02*
X163789606Y-152181942D01*
X163789606Y-152181942D02*
X163741987Y-152277180D01*
X163741987Y-152277180D02*
X163694368Y-152324800D01*
X163694368Y-152324800D02*
X163599130Y-152372419D01*
X163599130Y-152372419D02*
X163408654Y-152372419D01*
X163408654Y-152372419D02*
X163313416Y-152324800D01*
X163313416Y-152324800D02*
X163265797Y-152277180D01*
X163265797Y-152277180D02*
X163218178Y-152181942D01*
X163218178Y-152181942D02*
X163218178Y-151943847D01*
X163218178Y-151943847D02*
X163265797Y-151848609D01*
X163265797Y-151848609D02*
X163313416Y-151800990D01*
X163313416Y-151800990D02*
X163408654Y-151753371D01*
X163408654Y-151753371D02*
X163599130Y-151753371D01*
X163599130Y-151753371D02*
X163694368Y-151800990D01*
X163694368Y-151800990D02*
X163741987Y-151848609D01*
X163741987Y-151848609D02*
X163789606Y-151943847D01*
X162313416Y-151372419D02*
X162789606Y-151372419D01*
X162789606Y-151372419D02*
X162837225Y-151848609D01*
X162837225Y-151848609D02*
X162789606Y-151800990D01*
X162789606Y-151800990D02*
X162694368Y-151753371D01*
X162694368Y-151753371D02*
X162456273Y-151753371D01*
X162456273Y-151753371D02*
X162361035Y-151800990D01*
X162361035Y-151800990D02*
X162313416Y-151848609D01*
X162313416Y-151848609D02*
X162265797Y-151943847D01*
X162265797Y-151943847D02*
X162265797Y-152181942D01*
X162265797Y-152181942D02*
X162313416Y-152277180D01*
X162313416Y-152277180D02*
X162361035Y-152324800D01*
X162361035Y-152324800D02*
X162456273Y-152372419D01*
X162456273Y-152372419D02*
X162694368Y-152372419D01*
X162694368Y-152372419D02*
X162789606Y-152324800D01*
X162789606Y-152324800D02*
X162837225Y-152277180D01*
X161646749Y-151372419D02*
X161551511Y-151372419D01*
X161551511Y-151372419D02*
X161456273Y-151420038D01*
X161456273Y-151420038D02*
X161408654Y-151467657D01*
X161408654Y-151467657D02*
X161361035Y-151562895D01*
X161361035Y-151562895D02*
X161313416Y-151753371D01*
X161313416Y-151753371D02*
X161313416Y-151991466D01*
X161313416Y-151991466D02*
X161361035Y-152181942D01*
X161361035Y-152181942D02*
X161408654Y-152277180D01*
X161408654Y-152277180D02*
X161456273Y-152324800D01*
X161456273Y-152324800D02*
X161551511Y-152372419D01*
X161551511Y-152372419D02*
X161646749Y-152372419D01*
X161646749Y-152372419D02*
X161741987Y-152324800D01*
X161741987Y-152324800D02*
X161789606Y-152277180D01*
X161789606Y-152277180D02*
X161837225Y-152181942D01*
X161837225Y-152181942D02*
X161884844Y-151991466D01*
X161884844Y-151991466D02*
X161884844Y-151753371D01*
X161884844Y-151753371D02*
X161837225Y-151562895D01*
X161837225Y-151562895D02*
X161789606Y-151467657D01*
X161789606Y-151467657D02*
X161741987Y-151420038D01*
X161741987Y-151420038D02*
X161646749Y-151372419D01*
M02*
