M48
; DRILL file {KiCad 9.0.3} date 2025-08-18T22:43:20+0900
; FORMAT={-:-/ absolute / metric / decimal}
; #@! TF.CreationDate,2025-08-18T22:43:20+09:00
; #@! TF.GenerationSoftware,Kicad,Pcbnew,9.0.3
; #@! TF.FileFunction,Plated,1,2,PTH
FMAT,2
METRIC
; #@! TA.AperFunction,Plated,PTH,ViaDrill
T1C0.300
; #@! TA.AperFunction,Plated,PTH,ComponentDrill
T2C0.800
; #@! TA.AperFunction,Plated,PTH,ComponentDrill
T3C0.900
%
G90
G05
T1
X85.451Y-89.0
X86.451Y-90.5
X87.951Y-88.0
X94.451Y-101.0
X95.451Y-79.5
X95.451Y-82.5
X95.451Y-104.5
X96.316Y-108.484
X97.946Y-106.996
X98.951Y-102.0
X98.951Y-108.9
X99.451Y-100.5
X110.451Y-80.0
X112.451Y-84.5
X112.451Y-90.5
X113.451Y-79.0
X113.951Y-77.0
X115.451Y-99.5
X115.5Y-110.0
X119.451Y-106.0
X120.458Y-101.504
X123.951Y-97.0
X125.051Y-102.5
X125.051Y-104.5
X128.951Y-95.5
X134.451Y-66.0
T2
X79.911Y-108.25
X79.911Y-126.75
X81.951Y-87.11
X81.951Y-89.65
X81.951Y-92.19
X81.951Y-94.73
X81.951Y-97.27
X81.951Y-99.81
X81.951Y-102.35
X81.951Y-104.89
X82.451Y-108.25
X82.451Y-126.75
X87.911Y-96.5
X90.451Y-96.5
X90.451Y-108.25
X90.451Y-126.75
X92.991Y-108.25
X92.991Y-126.75
X97.451Y-82.94
X97.451Y-85.48
X97.451Y-88.02
X97.451Y-90.56
X97.451Y-93.1
X97.451Y-95.64
X97.451Y-98.18
X97.451Y-100.72
X97.451Y-103.26
X97.451Y-105.8
X97.451Y-108.34
X97.451Y-110.88
X97.451Y-113.42
X97.451Y-115.96
X97.451Y-118.5
X101.0Y-98.18
X101.0Y-103.85
X101.0Y-107.9
X101.0Y-111.95
X101.0Y-116.0
X108.62Y-98.18
X108.62Y-103.85
X108.62Y-107.9
X108.62Y-111.95
X108.62Y-116.0
X109.911Y-73.0
X112.0Y-95.64
X112.0Y-100.72
X112.0Y-113.42
X112.451Y-73.0
X118.801Y-81.88
X118.801Y-89.5
X119.62Y-95.64
X119.62Y-100.72
X119.62Y-113.42
X122.451Y-82.94
X122.451Y-85.48
X122.451Y-88.02
X122.451Y-90.56
X122.451Y-93.1
X122.451Y-95.64
X122.451Y-98.18
X122.451Y-100.72
X122.451Y-103.26
X122.451Y-105.8
X122.451Y-108.34
X122.451Y-110.88
X122.451Y-113.42
X122.451Y-115.96
X122.451Y-118.5
X131.911Y-61.0
X134.451Y-61.0
X153.911Y-73.0
X156.451Y-73.0
T3
X96.181Y-71.5
X98.721Y-71.5
X118.181Y-71.5
X120.721Y-71.5
X140.181Y-71.5
X142.721Y-71.5
X162.181Y-71.5
X164.721Y-71.5
M30
