%TF.GenerationSoftware,KiCad,Pcbnew,9.0.3*%
%TF.CreationDate,2025-08-18T22:42:58+09:00*%
%TF.ProjectId,espCon_main,65737043-6f6e-45f6-9d61-696e2e6b6963,rev?*%
%TF.SameCoordinates,Original*%
%TF.FileFunction,Soldermask,Bot*%
%TF.FilePolarity,Negative*%
%FSLAX46Y46*%
G04 Gerber Fmt 4.6, Leading zero omitted, Abs format (unit mm)*
G04 Created by KiCad (PCBNEW 9.0.3) date 2025-08-18 22:42:58*
%MOMM*%
%LPD*%
G01*
G04 APERTURE LIST*
G04 Aperture macros list*
%AMRoundRect*
0 Rectangle with rounded corners*
0 $1 Rounding radius*
0 $2 $3 $4 $5 $6 $7 $8 $9 X,Y pos of 4 corners*
0 Add a 4 corners polygon primitive as box body*
4,1,4,$2,$3,$4,$5,$6,$7,$8,$9,$2,$3,0*
0 Add four circle primitives for the rounded corners*
1,1,$1+$1,$2,$3*
1,1,$1+$1,$4,$5*
1,1,$1+$1,$6,$7*
1,1,$1+$1,$8,$9*
0 Add four rect primitives between the rounded corners*
20,1,$1+$1,$2,$3,$4,$5,0*
20,1,$1+$1,$4,$5,$6,$7,0*
20,1,$1+$1,$6,$7,$8,$9,0*
20,1,$1+$1,$8,$9,$2,$3,0*%
G04 Aperture macros list end*
%ADD10C,1.600000*%
%ADD11R,1.800000X1.800000*%
%ADD12C,1.800000*%
%ADD13RoundRect,0.190500X-0.444500X0.444500X-0.444500X-0.444500X0.444500X-0.444500X0.444500X0.444500X0*%
%ADD14RoundRect,0.190500X-0.444500X-0.444500X0.444500X-0.444500X0.444500X0.444500X-0.444500X0.444500X0*%
G04 APERTURE END LIST*
D10*
%TO.C,R5*%
X112000000Y-113420000D03*
X119620000Y-113420000D03*
%TD*%
%TO.C,R4*%
X112000000Y-100720000D03*
X119620000Y-100720000D03*
%TD*%
%TO.C,R3*%
X101000000Y-98180000D03*
X108620000Y-98180000D03*
%TD*%
%TO.C,R2*%
X112000000Y-95640000D03*
X119620000Y-95640000D03*
%TD*%
%TO.C,RV3*%
X134450634Y-61000000D03*
X131910634Y-61000000D03*
%TD*%
%TO.C,R_LED2*%
X101000000Y-103850000D03*
X108620000Y-103850000D03*
%TD*%
D11*
%TO.C,D5*%
X96180634Y-71500000D03*
D12*
X98720634Y-71500000D03*
%TD*%
D11*
%TO.C,D4*%
X118180634Y-71500000D03*
D12*
X120720634Y-71500000D03*
%TD*%
D13*
%TO.C,5VStepdown1*%
X92990634Y-108250000D03*
X90450634Y-108250000D03*
X82450634Y-108250000D03*
X79910634Y-108250000D03*
X92990634Y-126750000D03*
X90450634Y-126750000D03*
X82450634Y-126750000D03*
X79910634Y-126750000D03*
%TD*%
D14*
%TO.C,ESP32_DevkitC1*%
X97450634Y-82940000D03*
X97450634Y-85480000D03*
X97450634Y-88020000D03*
X97450634Y-90560000D03*
X97450634Y-93100000D03*
X97450634Y-95640000D03*
X97450634Y-98180000D03*
X97450634Y-100720000D03*
X97450634Y-103260000D03*
X97450634Y-105800000D03*
X97450634Y-108340000D03*
X97450634Y-110880000D03*
X97450634Y-113420000D03*
X97450634Y-115960000D03*
X97450634Y-118500000D03*
X122450634Y-118500000D03*
X122450634Y-115960000D03*
X122450634Y-113420000D03*
X122450634Y-110880000D03*
X122450634Y-108340000D03*
X122450634Y-105800000D03*
X122450634Y-103260000D03*
X122450634Y-100720000D03*
X122450634Y-98180000D03*
X122450634Y-95640000D03*
X122450634Y-93100000D03*
X122450634Y-90560000D03*
X122450634Y-88020000D03*
X122450634Y-85480000D03*
X122450634Y-82940000D03*
%TD*%
D10*
%TO.C,R_LED3*%
X101000000Y-107900000D03*
X108620000Y-107900000D03*
%TD*%
%TO.C,RV2*%
X156450634Y-73000000D03*
X153910634Y-73000000D03*
%TD*%
%TO.C,RV5*%
X90450634Y-96500000D03*
X87910634Y-96500000D03*
%TD*%
%TO.C,R_LED5*%
X101000000Y-116000000D03*
X108620000Y-116000000D03*
%TD*%
D11*
%TO.C,D3*%
X140180634Y-71500000D03*
D12*
X142720634Y-71500000D03*
%TD*%
D11*
%TO.C,D2*%
X162180634Y-71500000D03*
D12*
X164720634Y-71500000D03*
%TD*%
D10*
%TO.C,RV4*%
X112450634Y-73000000D03*
X109910634Y-73000000D03*
%TD*%
%TO.C,Pullup1*%
X118800634Y-89500000D03*
X118800634Y-81880000D03*
%TD*%
D14*
%TO.C,MPU1*%
X81950634Y-87110000D03*
X81950634Y-89650000D03*
X81950634Y-92190000D03*
X81950634Y-94730000D03*
X81950634Y-97270000D03*
X81950634Y-99810000D03*
X81950634Y-102350000D03*
X81950634Y-104890000D03*
%TD*%
D10*
%TO.C,R_LED4*%
X101000000Y-111950000D03*
X108620000Y-111950000D03*
%TD*%
M02*
